<svg version="1.1" id="Layer_1" xmlns="http://www.w3.org/2000/svg" xmlns:xlink="http://www.w3.org/1999/xlink" x="0px" y="0px"
	 width="100%" viewBox="0 0 512 512" enable-background="new 0 0 512 512" xml:space="preserve">
<path fill="#FE0050" opacity="1.000000" stroke="none" 
	d="
M225.000000,1.000002 
	C235.354233,1.000000 245.708450,1.000000 256.531342,1.468657 
	C257.008911,29.907866 257.017822,57.878418 256.567230,85.918671 
	C238.504822,86.151268 221.252975,88.724854 204.550949,94.269264 
	C127.735817,119.768852 79.541077,191.822144 87.021484,272.399078 
	C92.685738,333.412720 124.007835,378.530151 177.464447,408.158142 
	C202.128952,421.828278 228.970688,427.593811 257.021057,428.610413 
	C257.010132,457.046356 257.005066,485.023193 257.000000,513.000000 
	C246.645767,513.000000 236.291550,513.000000 225.714127,512.622559 
	C222.385864,511.500519 219.318008,510.480347 216.169815,510.054932 
	C190.764526,506.621979 166.774445,498.572083 143.890228,487.319305 
	C123.868698,477.474182 105.443321,465.161407 88.647682,450.313263 
	C74.235329,437.572083 61.202888,423.675079 49.777439,408.245850 
	C37.890049,392.192810 27.957275,374.913269 20.371889,356.509613 
	C11.675863,335.411316 4.935525,313.627197 2.901085,290.670837 
	C2.847174,290.062500 1.659141,289.554688 0.999998,289.000000 
	C1.000000,267.979095 1.000000,246.958206 1.385048,225.702942 
	C2.501808,222.193359 3.470322,218.950806 3.927377,215.637711 
	C7.270326,191.405258 14.920753,168.446243 25.351109,146.490814 
	C33.192856,129.984268 42.983791,114.592606 54.225697,100.034554 
	C68.471786,81.586136 84.912270,65.454926 103.356293,51.455654 
	C118.292854,40.118587 134.496414,30.669981 151.711914,23.005899 
	C174.471237,12.873778 198.032303,5.771302 222.831146,2.918709 
	C223.617279,2.828281 224.279846,1.663787 225.000000,1.000002 
z"/>
<path fill="#E10555" opacity="1.000000" stroke="none" 
	d="
M257.468658,513.000000 
	C257.005066,485.023193 257.010132,457.046356 256.969299,428.537415 
	C256.923462,428.005310 256.962555,427.830719 257.425537,427.900879 
	C265.361328,427.556854 272.918365,427.715759 280.292755,426.631866 
	C317.220490,421.204224 349.670135,406.050293 376.119995,379.583740 
	C419.921417,335.754639 435.718781,282.874420 424.568329,222.072006 
	C420.820251,201.633957 412.356598,182.860550 402.074890,165.068542 
	C407.993011,165.390228 413.570038,165.171478 418.870850,166.277008 
	C427.870575,168.154037 434.432007,165.100098 440.603363,158.708420 
	C452.115417,146.785446 464.130798,135.348495 476.245972,123.906738 
	C481.189087,133.042892 486.053009,141.871048 490.411560,150.942001 
	C501.335388,173.676392 507.991211,197.674820 511.084473,222.692551 
	C511.187744,223.527878 512.337830,224.233780 513.000000,225.000000 
	C513.000000,246.020889 513.000000,267.041779 512.595337,288.365295 
	C511.798859,289.511414 511.208191,290.318542 511.045898,291.204102 
	C509.459351,299.862091 508.313049,308.618195 506.337250,317.183990 
	C501.147308,339.684479 492.716095,360.937836 481.498688,381.165375 
	C471.846313,398.570953 460.487885,414.752441 446.998901,429.270020 
	C438.123444,438.822296 428.246429,447.502625 418.360413,456.043884 
	C402.215851,469.992340 384.067596,480.852203 364.694824,489.802734 
	C341.130554,500.689728 316.659393,508.192566 290.817474,511.093842 
	C290.148773,511.168915 289.603088,512.340027 289.000000,513.000000 
	C278.645782,513.000000 268.291534,513.000000 257.468658,513.000000 
z"/>
<path fill="#000000" opacity="0.000000" stroke="none" 
	d="
M289.468658,513.000000 
	C289.603088,512.340027 290.148773,511.168915 290.817474,511.093842 
	C316.659393,508.192566 341.130554,500.689728 364.694824,489.802734 
	C384.067596,480.852203 402.215851,469.992340 418.360413,456.043884 
	C428.246429,447.502625 438.123444,438.822296 446.998901,429.270020 
	C460.487885,414.752441 471.846313,398.570953 481.498688,381.165375 
	C492.716095,360.937836 501.147308,339.684479 506.337250,317.183990 
	C508.313049,308.618195 509.459351,299.862091 511.045898,291.204102 
	C511.208191,290.318542 511.798859,289.511414 512.595337,288.833923 
	C513.000000,363.593719 513.000000,438.187408 513.000000,513.000000 
	C438.645905,513.000000 364.291626,513.000000 289.468658,513.000000 
z"/>
<path fill="#000000" opacity="0.000000" stroke="none" 
	d="
M0.999998,289.468658 
	C1.659141,289.554688 2.847174,290.062500 2.901085,290.670837 
	C4.935525,313.627197 11.675863,335.411316 20.371889,356.509613 
	C27.957275,374.913269 37.890049,392.192810 49.777439,408.245850 
	C61.202888,423.675079 74.235329,437.572083 88.647682,450.313263 
	C105.443321,465.161407 123.868698,477.474182 143.890228,487.319305 
	C166.774445,498.572083 190.764526,506.621979 216.169815,510.054932 
	C219.318008,510.480347 222.385864,511.500519 225.245468,512.622559 
	C150.406296,513.000000 75.812599,513.000000 1.000000,513.000000 
	C1.000000,438.645905 1.000000,364.291626 0.999998,289.468658 
z"/>
<path fill="#000000" opacity="0.000000" stroke="none" 
	d="
M224.531342,1.000002 
	C224.279846,1.663787 223.617279,2.828281 222.831146,2.918709 
	C198.032303,5.771302 174.471237,12.873778 151.711914,23.005899 
	C134.496414,30.669981 118.292854,40.118587 103.356293,51.455654 
	C84.912270,65.454926 68.471786,81.586136 54.225697,100.034554 
	C42.983791,114.592606 33.192856,129.984268 25.351109,146.490814 
	C14.920753,168.446243 7.270326,191.405258 3.927377,215.637711 
	C3.470322,218.950806 2.501808,222.193359 1.385048,225.234283 
	C1.000000,150.406296 1.000000,75.812576 1.000000,1.000000 
	C75.354088,1.000000 149.708389,1.000000 224.531342,1.000002 
z"/>
<path fill="#000000" opacity="0.000000" stroke="none" 
	d="
M513.000000,224.531342 
	C512.337830,224.233780 511.187744,223.527878 511.084473,222.692551 
	C507.991211,197.674820 501.335388,173.676392 490.411560,150.942001 
	C486.053009,141.871048 481.189087,133.042892 476.419617,123.636208 
	C484.400146,115.073715 492.427032,106.886864 500.667694,98.921143 
	C505.241455,94.499939 506.218872,88.892685 504.648987,83.526596 
	C503.098267,78.226120 499.398590,73.609543 493.048981,73.032646 
	C477.079163,71.581711 461.093536,70.304916 445.064026,68.505699 
	C444.339844,57.540070 443.771362,47.018784 442.948608,36.517422 
	C442.517426,31.013441 442.125519,25.429832 440.863281,20.083475 
	C438.249115,9.011179 423.809723,5.017872 415.893372,12.678034 
	C407.285614,21.007299 398.973663,29.642244 390.279846,37.859459 
	C381.081390,32.920704 372.254181,28.019588 363.166931,23.660664 
	C340.397125,12.738609 316.403931,5.924405 291.320831,2.913743 
	C290.482727,2.813151 289.770752,1.661641 289.000000,0.999999 
	C363.593719,1.000000 438.187408,1.000000 513.000000,1.000000 
	C513.000000,75.354088 513.000000,149.708389 513.000000,224.531342 
z"/>
<path fill="#E10555" opacity="1.000000" stroke="none" 
	d="
M288.531342,0.999999 
	C289.770752,1.661641 290.482727,2.813151 291.320831,2.913743 
	C316.403931,5.924405 340.397125,12.738609 363.166931,23.660664 
	C372.254181,28.019588 381.081390,32.920704 390.114685,38.171856 
	C377.759766,51.284496 365.363922,63.847324 352.848419,76.289803 
	C348.639465,80.474182 346.919922,85.223907 347.550903,91.164001 
	C348.305847,98.271042 348.565063,105.430733 348.707367,112.393250 
	C347.804474,111.883636 347.230377,111.553116 346.662262,111.212494 
	C319.053192,94.658272 289.390228,85.461517 256.942139,86.082077 
	C256.922424,85.994682 257.026703,85.848969 257.026703,85.848969 
	C257.017822,57.878418 257.008911,29.907866 257.000000,1.468657 
	C267.354218,1.000000 277.708466,1.000000 288.531342,0.999999 
z"/>
<path fill="#D9E6F3" opacity="1.000000" stroke="none" 
	d="
M256.975220,428.078278 
	C228.970688,427.593811 202.128952,421.828278 177.464447,408.158142 
	C124.007835,378.530151 92.685738,333.412720 87.021484,272.399078 
	C79.541077,191.822144 127.735817,119.768852 204.550949,94.269264 
	C221.252975,88.724854 238.504822,86.151268 256.567230,85.918671 
	C257.026703,85.848969 256.922424,85.994682 256.948914,86.539810 
	C256.990448,116.669777 257.005554,146.254623 256.575195,175.912949 
	C198.540085,177.333679 159.970581,234.958923 182.174423,287.535339 
	C195.947708,320.149078 221.815094,336.445648 257.016510,338.619110 
	C256.995819,368.662048 256.979187,398.246368 256.962524,427.830719 
	C256.962555,427.830719 256.923462,428.005310 256.975220,428.078278 
z"/>
<path fill="#C8D4DF" opacity="1.000000" stroke="none" 
	d="
M257.425537,427.900879 
	C256.979187,398.246368 256.995819,368.662048 256.968628,338.539154 
	C256.924835,338.000610 256.966705,337.819000 257.420593,337.893494 
	C284.836426,337.627411 306.299713,326.254700 322.357300,304.929871 
	C342.892151,277.659119 343.410034,237.010513 324.170776,211.483521 
	C340.500580,195.014481 356.679077,178.829147 373.330872,162.623108 
	C383.072662,163.442825 392.341125,164.283264 401.609589,165.123688 
	C412.356598,182.860550 420.820251,201.633957 424.568329,222.072006 
	C435.718781,282.874420 419.921417,335.754639 376.119995,379.583740 
	C349.670135,406.050293 317.220490,421.204224 280.292755,426.631866 
	C272.918365,427.715759 265.361328,427.556854 257.425537,427.900879 
z"/>
<path fill="#FAB400" opacity="1.000000" stroke="none" 
	d="
M402.074890,165.068542 
	C392.341125,164.283264 383.072662,163.442825 372.986084,162.447144 
	C367.104828,160.844727 362.041626,159.397537 356.885986,157.689880 
	C356.518768,156.960175 356.244080,156.490921 356.303467,155.937256 
	C358.425476,154.404434 360.359222,153.102234 361.979492,151.485779 
	C388.100861,125.426178 414.177643,99.321884 440.284943,73.248161 
	C441.805817,71.729210 443.500458,70.384247 445.114227,68.958313 
	C461.093536,70.304916 477.079163,71.581711 493.048981,73.032646 
	C499.398590,73.609543 503.098267,78.226120 504.648987,83.526596 
	C506.218872,88.892685 505.241455,94.499939 500.667694,98.921143 
	C492.427032,106.886864 484.400146,115.073715 476.110352,123.438736 
	C464.130798,135.348495 452.115417,146.785446 440.603363,158.708420 
	C434.432007,165.100098 427.870575,168.154037 418.870850,166.277008 
	C413.570038,165.171478 407.993011,165.390228 402.074890,165.068542 
z"/>
<path fill="#FFC300" opacity="1.000000" stroke="none" 
	d="
M445.064026,68.505707 
	C443.500458,70.384247 441.805817,71.729210 440.284943,73.248161 
	C414.177643,99.321884 388.100861,125.426178 361.979492,151.485779 
	C360.359222,153.102234 358.425476,154.404434 355.994873,155.749847 
	C354.122742,150.826736 352.893250,146.006607 351.706635,140.759857 
	C350.846008,131.078033 349.942474,121.822830 349.038940,112.567627 
	C348.565063,105.430733 348.305847,98.271042 347.550903,91.164001 
	C346.919922,85.223907 348.639465,80.474182 352.848419,76.289803 
	C365.363922,63.847324 377.759766,51.284496 390.367554,38.456306 
	C398.973663,29.642244 407.285614,21.007299 415.893372,12.678034 
	C423.809723,5.017872 438.249115,9.011179 440.863281,20.083475 
	C442.125519,25.429832 442.517426,31.013441 442.948608,36.517422 
	C443.771362,47.018784 444.339844,57.540070 445.064026,68.505707 
z"/>
<path fill="#C8D4DF" opacity="1.000000" stroke="none" 
	d="
M348.707367,112.393250 
	C349.942474,121.822830 350.846008,131.078033 351.482605,140.970490 
	C349.444427,143.359955 347.671387,145.110428 345.902100,146.864700 
	C331.386810,161.256897 316.872192,175.649811 302.103058,189.721863 
	C288.187347,180.582581 273.432404,175.476562 256.944763,176.089813 
	C256.923553,175.998917 257.020660,175.839478 257.020660,175.839478 
	C257.005554,146.254623 256.990448,116.669777 256.968628,86.627197 
	C289.390228,85.461517 319.053192,94.658272 346.662262,111.212494 
	C347.230377,111.553116 347.804474,111.883636 348.707367,112.393250 
z"/>
<path fill="#FE0151" opacity="1.000000" stroke="none" 
	d="
M256.972717,338.080566 
	C221.815094,336.445648 195.947708,320.149078 182.174423,287.535339 
	C159.970581,234.958923 198.540085,177.333679 256.575195,175.912949 
	C257.020660,175.839478 256.923553,175.998917 256.950317,176.546906 
	C257.030975,196.483444 257.084900,215.871964 256.986511,235.551117 
	C253.474792,239.232727 250.050323,242.562149 246.769684,246.027740 
	C240.322983,252.837967 240.417145,260.829163 247.095993,268.256989 
	C250.504791,269.768127 253.741760,270.967499 256.983734,272.625061 
	C256.981415,294.661835 256.974060,316.240417 256.966705,337.819000 
	C256.966705,337.819000 256.924835,338.000610 256.972717,338.080566 
z"/>
<path fill="#E10655" opacity="1.000000" stroke="none" 
	d="
M257.420593,337.893494 
	C256.974060,316.240417 256.981415,294.661835 257.377106,272.557495 
	C261.630737,270.047485 266.248749,268.841919 269.238190,265.951813 
	C287.702484,248.101151 305.800079,229.871170 324.019501,211.767242 
	C343.410034,237.010513 342.892151,277.659119 322.357300,304.929871 
	C306.299713,326.254700 284.836426,337.627411 257.420593,337.893494 
z"/>
<path fill="#0C0C49" opacity="1.000000" stroke="none" 
	d="
M324.170776,211.483521 
	C305.800079,229.871170 287.702484,248.101151 269.238190,265.951813 
	C266.248749,268.841919 261.630737,270.047485 257.372101,272.099304 
	C253.741760,270.967499 250.504791,269.768127 247.201248,267.936218 
	C248.265244,265.886108 249.271240,264.344025 250.544586,263.068970 
	C284.409088,229.158829 318.293274,195.268280 352.217041,161.417435 
	C353.590179,160.047272 355.381805,159.096512 356.978455,157.950348 
	C362.041626,159.397537 367.104828,160.844727 372.512756,162.467865 
	C356.679077,178.829147 340.500580,195.014481 324.170776,211.483521 
z"/>
<path fill="#302E56" opacity="1.000000" stroke="none" 
	d="
M356.885986,157.689880 
	C355.381805,159.096512 353.590179,160.047272 352.217041,161.417435 
	C318.293274,195.268280 284.409088,229.158829 250.544586,263.068970 
	C249.271240,264.344025 248.265244,265.886108 247.029404,267.624512 
	C240.417145,260.829163 240.322983,252.837967 246.769684,246.027740 
	C250.050323,242.562149 253.474792,239.232727 257.282288,235.385849 
	C272.605988,219.967468 287.481689,205.004990 302.357391,190.042496 
	C316.872192,175.649811 331.386810,161.256897 345.902100,146.864700 
	C347.671387,145.110428 349.444427,143.359955 351.439758,141.397110 
	C352.893250,146.006607 354.122742,150.826736 355.660797,155.834259 
	C356.244080,156.490921 356.518768,156.960175 356.885986,157.689880 
z"/>
<path fill="#E10655" opacity="1.000000" stroke="none" 
	d="
M302.103058,189.721863 
	C287.481689,205.004990 272.605988,219.967468 257.434540,235.095215 
	C257.084900,215.871964 257.030975,196.483444 256.971527,176.637817 
	C273.432404,175.476562 288.187347,180.582581 302.103058,189.721863 
z"/>
</svg>