<svg version="1.1" id="Layer_1" xmlns="http://www.w3.org/2000/svg" xmlns:xlink="http://www.w3.org/1999/xlink" x="0px" y="0px"
	 width="100%" viewBox="0 0 512 512" enable-background="new 0 0 512 512" xml:space="preserve">
<path fill="#000000" opacity="1.000000" stroke="none" 
	d="
M513.000000,168.000000 
	C513.000000,283.305298 513.000000,398.110596 513.000000,512.957947 
	C342.403015,512.957947 171.806046,512.957947 1.104528,512.957947 
	C1.104528,342.444733 1.104528,171.889374 1.104528,1.167012 
	C171.666534,1.167012 342.333252,1.167012 513.000000,1.167012 
	C513.000000,56.527256 513.000000,112.013626 513.000000,168.000000 
M10.830578,331.417114 
	C16.817791,344.449738 28.282755,346.107666 40.674942,345.003967 
	C40.674942,356.053619 40.674942,366.305634 40.674942,375.573822 
	C33.496368,377.108185 26.350451,377.468048 20.313375,380.241547 
	C13.768298,383.248444 9.542214,389.390472 9.030314,397.144043 
	C8.612980,403.465271 8.783049,409.721771 12.715001,415.194061 
	C19.672449,424.877045 29.839972,425.975586 41.000443,424.898041 
	C41.000443,438.275848 40.996185,450.905548 41.001999,463.535278 
	C41.005634,471.430969 42.600933,472.997955 50.641827,472.998352 
	C102.134750,473.000793 153.627686,472.999634 205.120605,472.999634 
	C207.002975,472.999634 208.885345,472.999603 211.476578,472.999603 
	C208.123505,479.693665 205.235962,485.401489 202.401779,491.135681 
	C200.366699,495.253082 199.585297,499.859131 202.998947,503.150421 
	C206.376434,506.406799 210.898987,505.567322 215.046356,503.492523 
	C234.200775,493.910217 253.358261,484.333069 272.588501,474.904694 
	C274.852966,473.794525 277.570801,473.085571 280.080994,473.078430 
	C319.575256,472.966187 359.069916,473.000153 398.564484,472.999207 
	C407.765015,472.998993 408.999084,471.736725 408.999268,462.329010 
	C409.000061,423.667664 409.043549,385.006165 408.923828,346.345184 
	C408.913208,342.912170 409.846497,340.499207 412.292084,338.067749 
	C440.416443,310.105927 468.409058,282.011658 496.488159,254.004196 
	C506.652985,243.865250 507.714264,230.098328 502.480316,220.362930 
	C491.389038,199.732315 467.446228,192.971603 449.692139,211.679855 
	C437.995972,224.004562 425.735931,235.794357 413.715607,247.810898 
	C412.473236,249.052948 411.143738,250.207825 408.999603,252.195969 
	C408.999603,249.200668 408.999634,247.274170 408.999634,245.347672 
	C408.999634,170.024689 408.999908,94.701706 408.999146,19.378719 
	C408.999054,10.333694 407.686462,9.001017 398.772858,9.000957 
	C282.955444,9.000189 167.138031,9.000444 51.320610,9.000483 
	C50.487392,9.000484 49.653942,8.988303 48.820992,9.003373 
	C43.141479,9.106126 41.044685,11.127280 41.016151,16.784189 
	C40.964043,27.115841 41.000740,37.447941 41.000443,47.779854 
	C41.000355,50.721386 41.000427,53.662918 41.000427,55.498947 
	C33.464790,57.111134 26.308367,57.461395 20.281038,60.251118 
	C13.755982,63.271214 9.529749,69.413712 9.025084,77.176346 
	C8.613720,83.503845 8.810568,89.754227 12.740206,95.215614 
	C19.697304,104.884560 29.852840,106.025597 40.559319,104.952354 
	C40.559319,116.049774 40.559319,126.419724 40.559319,137.366104 
	C35.476570,137.366104 30.648388,136.540878 26.230541,137.536469 
	C16.794167,139.663040 8.390375,149.348251 8.682647,162.473816 
	C8.927927,173.489059 20.517735,186.245026 31.576233,185.049423 
	C34.615936,184.720764 37.721298,184.999451 40.633575,184.999451 
	C40.633575,196.139648 40.633575,206.393051 40.633575,215.564987 
	C33.390636,217.120026 26.227835,217.474167 20.203766,220.276352 
	C13.883418,223.216324 9.622085,229.227844 9.051837,236.761230 
	C8.574771,243.063583 8.643811,249.415192 12.466481,254.905823 
	C19.381493,264.838104 29.732508,266.046387 40.707268,264.960388 
	C40.707268,275.986816 40.707268,286.238068 40.707268,296.708649 
	C35.660896,296.953003 30.693041,296.401611 26.162376,297.560028 
	C12.026491,301.174408 5.778543,314.767029 10.830578,331.417114 
z"/>
<path fill="#B3404A" opacity="1.000000" stroke="none" 
	d="
M10.584702,331.099915 
	C5.778543,314.767029 12.026491,301.174408 26.162376,297.560028 
	C30.693041,296.401611 35.660896,296.953003 40.707268,296.708649 
	C40.707268,286.238068 40.707268,275.986816 40.707268,264.960388 
	C29.732508,266.046387 19.381493,264.838104 12.466481,254.905823 
	C8.643811,249.415192 8.574771,243.063583 9.051837,236.761230 
	C9.622085,229.227844 13.883418,223.216324 20.203766,220.276352 
	C26.227835,217.474167 33.390636,217.120026 40.633575,215.564987 
	C40.633575,206.393051 40.633575,196.139648 40.633575,184.999451 
	C37.721298,184.999451 34.615936,184.720764 31.576233,185.049423 
	C20.517735,186.245026 8.927927,173.489059 8.682647,162.473816 
	C8.390375,149.348251 16.794167,139.663040 26.230541,137.536469 
	C30.648388,136.540878 35.476570,137.366104 40.559319,137.366104 
	C40.559319,126.419724 40.559319,116.049774 40.559319,104.952354 
	C29.852840,106.025597 19.697304,104.884560 12.740206,95.215614 
	C8.810568,89.754227 8.613720,83.503845 9.025084,77.176346 
	C9.529749,69.413712 13.755982,63.271214 20.281038,60.251118 
	C26.308367,57.461395 33.464790,57.111134 41.000427,55.498947 
	C41.000427,53.662918 41.000355,50.721386 41.000443,47.779854 
	C41.000740,37.447941 40.964043,27.115841 41.016151,16.784189 
	C41.044685,11.127280 43.141479,9.106126 48.820992,9.003373 
	C49.653942,8.988303 50.487392,9.000484 51.320610,9.000483 
	C167.138031,9.000444 282.955444,9.000189 398.772858,9.000957 
	C407.686462,9.001017 408.999054,10.333694 408.999146,19.378719 
	C408.999908,94.701706 408.999634,170.024689 408.999634,245.347672 
	C408.999634,247.274170 408.999603,249.200668 408.999603,252.195969 
	C411.143738,250.207825 412.473236,249.052948 413.715607,247.810898 
	C425.735931,235.794357 437.995972,224.004562 449.692139,211.679855 
	C467.446228,192.971603 491.389038,199.732315 502.480316,220.362930 
	C507.714264,230.098328 506.652985,243.865250 496.488159,254.004196 
	C468.409058,282.011658 440.416443,310.105927 412.292084,338.067749 
	C409.846497,340.499207 408.913208,342.912170 408.923828,346.345184 
	C409.043549,385.006165 409.000061,423.667664 408.999268,462.329010 
	C408.999084,471.736725 407.765015,472.998993 398.564484,472.999207 
	C359.069916,473.000153 319.575256,472.966187 280.080994,473.078430 
	C277.570801,473.085571 274.852966,473.794525 272.588501,474.904694 
	C253.358261,484.333069 234.200775,493.910217 215.046356,503.492523 
	C210.898987,505.567322 206.376434,506.406799 202.998947,503.150421 
	C199.585297,499.859131 200.366699,495.253082 202.401779,491.135681 
	C205.235962,485.401489 208.123505,479.693665 211.476578,472.999603 
	C208.885345,472.999603 207.002975,472.999634 205.120605,472.999634 
	C153.627686,472.999634 102.134750,473.000793 50.641827,472.998352 
	C42.600933,472.997955 41.005634,471.430969 41.001999,463.535278 
	C40.996185,450.905548 41.000443,438.275848 41.000443,424.898041 
	C29.839972,425.975586 19.672449,424.877045 12.715001,415.194061 
	C8.783049,409.721771 8.612980,403.465271 9.030314,397.144043 
	C9.542214,389.390472 13.768298,383.248444 20.313375,380.241547 
	C26.350451,377.468048 33.496368,377.108185 40.674942,375.573822 
	C40.674942,366.305634 40.674942,356.053619 40.674942,345.003967 
	C28.282755,346.107666 16.817791,344.449738 10.584702,331.099915 
M236.500000,56.999348 
	C256.569336,56.999348 276.638672,56.999348 296.550110,56.999348 
	C296.550110,45.809910 296.550110,35.575741 296.550110,25.415785 
	C243.207733,25.415785 190.315689,25.415785 137.363617,25.415785 
	C137.363617,169.377487 137.363617,312.923767 137.363617,456.999237 
	C139.682434,456.999237 141.643326,456.999237 143.604218,456.999237 
	C165.100189,456.999298 186.616699,456.451385 208.082458,457.256683 
	C217.257217,457.600891 222.429047,455.185760 225.519669,446.384491 
	C230.071747,433.421509 238.935547,423.417297 248.678207,413.778534 
	C295.824066,367.135223 342.569885,320.087708 389.524353,273.250488 
	C391.928833,270.852020 393.075531,268.481812 393.071320,264.998169 
	C392.976776,186.846298 393.000641,108.694260 392.985962,30.542263 
	C392.985626,28.790232 392.797119,27.038239 392.705200,25.439148 
	C387.162415,25.439148 382.262054,25.439148 377.000671,25.439148 
	C377.000671,28.022919 377.000671,30.170174 377.000671,32.317429 
	C377.000610,68.477310 377.001129,104.637192 376.998535,140.797073 
	C376.998444,142.296478 377.086823,143.808060 376.933197,145.293182 
	C376.278503,151.622375 370.406433,154.753677 364.884674,151.742661 
	C363.783295,151.142075 362.752960,150.411194 360.999573,149.304810 
	C360.999573,158.172775 361.022919,166.288437 360.992889,174.403900 
	C360.963867,182.248322 358.290741,184.987778 350.534363,184.990112 
	C293.545044,185.007217 236.555740,185.006439 179.566437,184.991409 
	C171.725189,184.989334 169.014008,182.299942 169.009552,174.513931 
	C168.989151,138.853958 168.989761,103.193970 169.008942,67.534004 
	C169.013153,59.702766 171.695251,57.020576 179.510513,57.009197 
	C198.173630,56.982029 216.836838,56.999756 236.500000,56.999348 
M121.000298,363.500000 
	C121.000298,250.797745 121.000298,138.095474 121.000298,25.397194 
	C99.246674,25.397194 78.354034,25.397194 57.365986,25.397194 
	C57.365986,36.028683 57.365986,46.259712 57.365986,57.009163 
	C60.189041,57.009163 62.652702,56.956005 65.113464,57.018009 
	C78.493111,57.355148 88.952629,67.853798 88.981461,80.943336 
	C89.010269,94.025459 78.574646,104.598495 65.219208,104.978874 
	C62.629581,105.052635 60.036053,104.989479 57.367004,104.989479 
	C57.367004,116.030716 57.367004,126.261841 57.367004,137.009186 
	C60.191422,137.009186 62.655365,136.955933 65.116394,137.018082 
	C78.490623,137.355789 88.952835,147.858597 88.981461,160.943726 
	C89.010078,174.025131 78.572029,184.599243 65.216599,184.978912 
	C62.627213,185.052521 60.033943,184.989502 57.367920,184.989502 
	C57.367920,196.032654 57.367920,206.263809 57.367920,217.009201 
	C60.193550,217.009201 62.657742,216.955811 65.119011,217.018097 
	C78.493340,217.356522 88.955475,227.862640 88.981461,240.948822 
	C89.007439,254.031357 78.570206,264.600494 65.212341,264.979004 
	C62.623360,265.052338 60.030518,264.989532 57.369396,264.989532 
	C57.369396,276.035797 57.369396,286.266968 57.369396,297.009216 
	C60.196995,297.009216 62.661598,296.955658 65.123253,297.018158 
	C78.501114,297.357849 88.956070,307.859161 88.981468,320.949890 
	C89.006851,334.031952 78.569977,344.600433 65.212662,344.978973 
	C62.623646,345.052368 60.030773,344.989532 57.369286,344.989532 
	C57.369286,356.035553 57.369286,366.266724 57.369286,377.009216 
	C60.189747,377.009216 62.657814,376.955597 65.122932,377.018158 
	C78.500877,377.357758 88.955902,387.858856 88.981468,400.949585 
	C89.007019,414.031647 78.570198,424.600342 65.212982,424.979004 
	C62.623936,425.052399 60.031033,424.989532 57.372017,424.989532 
	C57.372017,436.033844 57.372017,446.263489 57.372017,456.660950 
	C78.638451,456.660950 99.531250,456.660950 121.000298,456.660950 
	C121.000298,425.716797 121.000298,395.108398 121.000298,363.500000 
M185.876236,168.777893 
	C186.703415,168.850067 187.530563,168.985245 188.357758,168.985413 
	C239.333481,168.996536 290.309204,168.998932 341.284943,168.982498 
	C342.394470,168.982147 343.503967,168.754318 345.000397,168.590149 
	C345.000397,159.361069 344.388611,150.341385 345.188629,141.448715 
	C345.862183,133.961685 342.284058,129.773285 336.810455,125.890244 
	C335.854950,126.772339 334.985565,127.523766 334.173401,128.332703 
	C326.856171,135.620941 319.521484,142.891968 312.251160,150.226761 
	C308.881317,153.626434 304.941772,153.701691 300.816925,152.303864 
	C296.780182,150.935913 296.970428,147.408600 296.997192,144.044006 
	C297.015106,141.794632 297.000580,139.544998 297.000580,136.844025 
	C264.629211,136.844025 233.052658,136.844025 201.414017,136.844025 
	C201.414017,131.333755 201.414017,126.298958 201.414017,120.813370 
	C233.402069,120.813370 264.978943,120.813370 296.571838,120.813370 
	C296.571838,115.304497 296.571838,110.266731 296.571838,104.782845 
	C264.568542,104.782845 232.991470,104.782845 201.445663,104.782845 
	C201.445663,99.273682 201.445663,94.236839 201.445663,88.754929 
	C233.465118,88.754929 265.041412,88.754929 296.718628,88.754929 
	C296.718628,83.368752 296.718628,78.451447 296.718628,73.368240 
	C259.412323,73.368240 222.388763,73.368240 185.215332,73.368240 
	C185.215332,105.190987 185.215332,136.645676 185.876236,168.777893 
M321.998749,364.498749 
	C299.178223,387.251923 276.357666,410.005127 254.515244,431.783051 
	C261.392548,438.714264 267.654449,445.025208 273.407562,450.823425 
	C332.480591,391.766357 392.029297,332.233734 451.267395,273.011627 
	C445.300751,266.910156 439.076691,260.545441 432.583099,253.905136 
	C395.920868,290.570465 359.209808,327.284607 321.998749,364.498749 
M392.999695,390.500000 
	C392.999695,379.632111 392.999695,368.764221 392.999695,358.254974 
	C359.968414,391.255890 327.194855,423.999329 294.510193,456.653961 
	C326.806885,456.653961 359.621002,456.653961 392.999695,456.653961 
	C392.999695,434.708710 392.999695,413.104370 392.999695,390.500000 
M361.000397,93.500000 
	C361.000397,70.757408 361.000397,48.014816 361.000397,25.334705 
	C344.593658,25.334705 329.010925,25.334705 313.379639,25.334705 
	C313.379639,58.171196 313.379639,90.671104 313.379639,124.678772 
	C319.252777,118.591034 323.970917,113.205322 329.263184,108.459854 
	C331.364075,106.576019 334.749908,105.224564 337.529388,105.260956 
	C340.114136,105.294807 343.107117,107.008690 345.153900,108.839699 
	C350.375671,113.511063 355.169708,118.660561 361.000397,124.483032 
	C361.000397,113.468002 361.000397,103.984001 361.000397,93.500000 
M488.016235,232.580505 
	C487.570526,228.036942 480.750183,218.976959 476.393372,218.374008 
	C473.344818,217.952118 469.090576,218.072433 467.068756,219.863174 
	C459.646149,226.437302 452.931213,233.810471 446.347382,240.480255 
	C452.782013,247.005890 459.030792,253.343033 465.526886,259.930969 
	C472.253571,253.202866 479.279663,246.384338 485.996857,239.274048 
	C487.287933,237.907471 487.366608,235.395538 488.016235,232.580505 
M26.350853,78.208199 
	C25.547785,85.388695 27.781826,88.576767 35.019150,88.887817 
	C44.318405,89.287468 53.657192,89.239815 62.961025,88.897514 
	C69.360832,88.662056 72.725731,84.800598 71.972977,79.675797 
	C71.420395,75.913795 67.723671,73.156479 62.316353,73.052193 
	C53.502239,72.882187 44.671955,72.756905 35.870487,73.130646 
	C32.526943,73.272629 28.366236,73.111969 26.350853,78.208199 
M34.150776,168.937454 
	C43.295067,168.957764 52.440048,169.054764 61.583412,168.972260 
	C68.002426,168.914352 71.719055,166.149094 71.989983,161.563644 
	C72.287209,156.533234 69.112755,153.288437 62.714314,153.085724 
	C53.578785,152.796280 44.419243,152.778488 35.285164,153.090256 
	C28.524532,153.320999 25.585033,156.567596 25.978025,161.919296 
	C26.320585,166.584244 29.941013,167.456589 34.150776,168.937454 
M55.438828,249.000397 
	C59.024437,248.682220 62.635796,248.535156 66.188828,248.000488 
	C70.205254,247.396118 72.083565,244.836014 72.011490,240.746780 
	C71.942276,236.819763 69.887367,234.147858 66.184181,234.070221 
	C54.206989,233.819138 42.210911,233.817474 30.248608,234.333679 
	C28.754845,234.398117 26.482903,238.054840 26.275490,240.210999 
	C26.068787,242.359787 27.429348,245.482788 29.154459,246.779724 
	C31.184103,248.305618 34.322559,248.769745 37.020573,248.908386 
	C42.818737,249.206314 48.642803,249.000198 55.438828,249.000397 
M50.493385,312.999603 
	C45.676964,313.000763 40.812016,312.590912 36.061680,313.151733 
	C33.040802,313.508423 29.479292,314.626221 27.504795,316.689423 
	C26.112310,318.144501 25.836273,322.781036 27.090084,324.182251 
	C29.204418,326.545166 32.849857,328.563721 35.989250,328.786774 
	C44.582211,329.397400 53.247753,329.057709 61.882683,328.947388 
	C63.640400,328.924927 65.434677,328.400879 67.133751,327.861298 
	C70.528618,326.783234 72.094749,324.389771 72.021233,320.781250 
	C71.951828,317.374084 70.394241,314.750977 67.182098,314.249542 
	C62.011574,313.442474 56.725140,313.377899 50.493385,312.999603 
M26.341627,403.780121 
	C29.125753,405.509003 31.822353,408.533691 34.710083,408.728760 
	C44.149014,409.366302 53.668934,409.256500 63.135368,408.876862 
	C69.469994,408.622803 72.909225,404.563171 71.936325,399.506653 
	C70.897125,394.105652 66.354179,393.275940 62.139965,393.109558 
	C53.337044,392.762054 44.488205,392.619263 35.701473,393.132538 
	C29.033140,393.522095 25.482496,394.860260 26.341627,403.780121 
M236.377701,473.904327 
	C243.534729,470.257751 250.691772,466.611176 257.222961,463.283478 
	C252.412811,458.294067 247.746185,453.453552 242.832520,448.356781 
	C238.189606,457.663452 233.547455,466.968628 228.905304,476.273773 
	C229.182022,476.546722 229.458725,476.819702 229.735443,477.092682 
	C231.708160,476.091278 233.680878,475.089874 236.377701,473.904327 
z"/>
<path fill="#F4B2B0" opacity="1.000000" stroke="none" 
	d="
M236.000000,56.999348 
	C216.836838,56.999756 198.173630,56.982029 179.510513,57.009197 
	C171.695251,57.020576 169.013153,59.702766 169.008942,67.534004 
	C168.989761,103.193970 168.989151,138.853958 169.009552,174.513931 
	C169.014008,182.299942 171.725189,184.989334 179.566437,184.991409 
	C236.555740,185.006439 293.545044,185.007217 350.534363,184.990112 
	C358.290741,184.987778 360.963867,182.248322 360.992889,174.403900 
	C361.022919,166.288437 360.999573,158.172775 360.999573,149.304810 
	C362.752960,150.411194 363.783295,151.142075 364.884674,151.742661 
	C370.406433,154.753677 376.278503,151.622375 376.933197,145.293182 
	C377.086823,143.808060 376.998444,142.296478 376.998535,140.797073 
	C377.001129,104.637192 377.000610,68.477310 377.000671,32.317429 
	C377.000671,30.170174 377.000671,28.022919 377.000671,25.439148 
	C382.262054,25.439148 387.162415,25.439148 392.705200,25.439148 
	C392.797119,27.038239 392.985626,28.790232 392.985962,30.542263 
	C393.000641,108.694260 392.976776,186.846298 393.071320,264.998169 
	C393.075531,268.481812 391.928833,270.852020 389.524353,273.250488 
	C342.569885,320.087708 295.824066,367.135223 248.678207,413.778534 
	C238.935547,423.417297 230.071747,433.421509 225.519669,446.384491 
	C222.429047,455.185760 217.257217,457.600891 208.082458,457.256683 
	C186.616699,456.451385 165.100189,456.999298 143.604218,456.999237 
	C141.643326,456.999237 139.682434,456.999237 137.363617,456.999237 
	C137.363617,312.923767 137.363617,169.377487 137.363617,25.415785 
	C190.315689,25.415785 243.207733,25.415785 296.550110,25.415785 
	C296.550110,35.575741 296.550110,45.809910 296.550110,56.999348 
	C276.638672,56.999348 256.569336,56.999348 236.000000,56.999348 
z"/>
<path fill="#F4B2B0" opacity="1.000000" stroke="none" 
	d="
M121.000298,364.000000 
	C121.000298,395.108398 121.000298,425.716797 121.000298,456.660950 
	C99.531250,456.660950 78.638451,456.660950 57.372017,456.660950 
	C57.372017,446.263489 57.372017,436.033844 57.372017,424.989532 
	C60.031033,424.989532 62.623936,425.052399 65.212982,424.979004 
	C78.570198,424.600342 89.007019,414.031647 88.981468,400.949585 
	C88.955902,387.858856 78.500877,377.357758 65.122932,377.018158 
	C62.657814,376.955597 60.189747,377.009216 57.369286,377.009216 
	C57.369286,366.266724 57.369286,356.035553 57.369286,344.989532 
	C60.030773,344.989532 62.623646,345.052368 65.212662,344.978973 
	C78.569977,344.600433 89.006851,334.031952 88.981468,320.949890 
	C88.956070,307.859161 78.501114,297.357849 65.123253,297.018158 
	C62.661598,296.955658 60.196995,297.009216 57.369396,297.009216 
	C57.369396,286.266968 57.369396,276.035797 57.369396,264.989532 
	C60.030518,264.989532 62.623360,265.052338 65.212341,264.979004 
	C78.570206,264.600494 89.007439,254.031357 88.981461,240.948822 
	C88.955475,227.862640 78.493340,217.356522 65.119011,217.018097 
	C62.657742,216.955811 60.193550,217.009201 57.367920,217.009201 
	C57.367920,206.263809 57.367920,196.032654 57.367920,184.989502 
	C60.033943,184.989502 62.627213,185.052521 65.216599,184.978912 
	C78.572029,184.599243 89.010078,174.025131 88.981461,160.943726 
	C88.952835,147.858597 78.490623,137.355789 65.116394,137.018082 
	C62.655365,136.955933 60.191422,137.009186 57.367004,137.009186 
	C57.367004,126.261841 57.367004,116.030716 57.367004,104.989479 
	C60.036053,104.989479 62.629581,105.052635 65.219208,104.978874 
	C78.574646,104.598495 89.010269,94.025459 88.981461,80.943336 
	C88.952629,67.853798 78.493111,57.355148 65.113464,57.018009 
	C62.652702,56.956005 60.189041,57.009163 57.365986,57.009163 
	C57.365986,46.259712 57.365986,36.028683 57.365986,25.397194 
	C78.354034,25.397194 99.246674,25.397194 121.000298,25.397194 
	C121.000298,138.095474 121.000298,250.797745 121.000298,364.000000 
z"/>
<path fill="#000000" opacity="0.000000" stroke="none" 
	d="
M185.545776,168.439133 
	C185.215332,136.645676 185.215332,105.190987 185.215332,73.368240 
	C222.388763,73.368240 259.412323,73.368240 296.718628,73.368240 
	C296.718628,78.451447 296.718628,83.368752 296.718628,88.754929 
	C265.041412,88.754929 233.465118,88.754929 201.445663,88.754929 
	C201.445663,94.236839 201.445663,99.273682 201.445663,104.782845 
	C232.991470,104.782845 264.568542,104.782845 296.571838,104.782845 
	C296.571838,110.266731 296.571838,115.304497 296.571838,120.813370 
	C264.978943,120.813370 233.402069,120.813370 201.414017,120.813370 
	C201.414017,126.298958 201.414017,131.333755 201.414017,136.844025 
	C233.052658,136.844025 264.629211,136.844025 297.000580,136.844025 
	C297.000580,139.544998 297.015106,141.794632 296.997192,144.044006 
	C296.970428,147.408600 296.780182,150.935913 300.816925,152.303864 
	C304.941772,153.701691 308.881317,153.626434 312.251160,150.226761 
	C319.521484,142.891968 326.856171,135.620941 334.173401,128.332703 
	C334.985565,127.523766 335.854950,126.772339 336.810455,125.890244 
	C342.284058,129.773285 345.862183,133.961685 345.188629,141.448715 
	C344.388611,150.341385 345.000397,159.361069 345.000397,168.590149 
	C343.503967,168.754318 342.394470,168.982147 341.284943,168.982498 
	C290.309204,168.998932 239.333481,168.996536 188.357758,168.985413 
	C187.530563,168.985245 186.703415,168.850067 185.545776,168.439133 
z"/>
<path fill="#000000" opacity="0.000000" stroke="none" 
	d="
M322.248749,364.248749 
	C359.209808,327.284607 395.920868,290.570465 432.583099,253.905136 
	C439.076691,260.545441 445.300751,266.910156 451.267395,273.011627 
	C392.029297,332.233734 332.480591,391.766357 273.407562,450.823425 
	C267.654449,445.025208 261.392548,438.714264 254.515244,431.783051 
	C276.357666,410.005127 299.178223,387.251923 322.248749,364.248749 
z"/>
<path fill="#F4B2B0" opacity="1.000000" stroke="none" 
	d="
M392.999695,391.000000 
	C392.999695,413.104370 392.999695,434.708710 392.999695,456.653961 
	C359.621002,456.653961 326.806885,456.653961 294.510193,456.653961 
	C327.194855,423.999329 359.968414,391.255890 392.999695,358.254974 
	C392.999695,368.764221 392.999695,379.632111 392.999695,391.000000 
z"/>
<path fill="#000000" opacity="0.000000" stroke="none" 
	d="
M361.000397,94.000000 
	C361.000397,103.984001 361.000397,113.468002 361.000397,124.483032 
	C355.169708,118.660561 350.375671,113.511063 345.153900,108.839699 
	C343.107117,107.008690 340.114136,105.294807 337.529388,105.260956 
	C334.749908,105.224564 331.364075,106.576019 329.263184,108.459854 
	C323.970917,113.205322 319.252777,118.591034 313.379639,124.678772 
	C313.379639,90.671104 313.379639,58.171196 313.379639,25.334705 
	C329.010925,25.334705 344.593658,25.334705 361.000397,25.334705 
	C361.000397,48.014816 361.000397,70.757408 361.000397,94.000000 
z"/>
<path fill="#000000" opacity="0.000000" stroke="none" 
	d="
M488.010406,232.996231 
	C487.366608,235.395538 487.287933,237.907471 485.996857,239.274048 
	C479.279663,246.384338 472.253571,253.202866 465.526886,259.930969 
	C459.030792,253.343033 452.782013,247.005890 446.347382,240.480255 
	C452.931213,233.810471 459.646149,226.437302 467.068756,219.863174 
	C469.090576,218.072433 473.344818,217.952118 476.393372,218.374008 
	C480.750183,218.976959 487.570526,228.036942 488.010406,232.996231 
z"/>
<path fill="#000000" opacity="0.000000" stroke="none" 
	d="
M26.598190,77.888725 
	C28.366236,73.111969 32.526943,73.272629 35.870487,73.130646 
	C44.671955,72.756905 53.502239,72.882187 62.316353,73.052193 
	C67.723671,73.156479 71.420395,75.913795 71.972977,79.675797 
	C72.725731,84.800598 69.360832,88.662056 62.961025,88.897514 
	C53.657192,89.239815 44.318405,89.287468 35.019150,88.887817 
	C27.781826,88.576767 25.547785,85.388695 26.598190,77.888725 
z"/>
<path fill="#000000" opacity="0.000000" stroke="none" 
	d="
M33.727676,168.833252 
	C29.941013,167.456589 26.320585,166.584244 25.978025,161.919296 
	C25.585033,156.567596 28.524532,153.320999 35.285164,153.090256 
	C44.419243,152.778488 53.578785,152.796280 62.714314,153.085724 
	C69.112755,153.288437 72.287209,156.533234 71.989983,161.563644 
	C71.719055,166.149094 68.002426,168.914352 61.583412,168.972260 
	C52.440048,169.054764 43.295067,168.957764 33.727676,168.833252 
z"/>
<path fill="#000000" opacity="0.000000" stroke="none" 
	d="
M54.947548,249.000397 
	C48.642803,249.000198 42.818737,249.206314 37.020573,248.908386 
	C34.322559,248.769745 31.184103,248.305618 29.154459,246.779724 
	C27.429348,245.482788 26.068787,242.359787 26.275490,240.210999 
	C26.482903,238.054840 28.754845,234.398117 30.248608,234.333679 
	C42.210911,233.817474 54.206989,233.819138 66.184181,234.070221 
	C69.887367,234.147858 71.942276,236.819763 72.011490,240.746780 
	C72.083565,244.836014 70.205254,247.396118 66.188828,248.000488 
	C62.635796,248.535156 59.024437,248.682220 54.947548,249.000397 
z"/>
<path fill="#000000" opacity="0.000000" stroke="none" 
	d="
M50.990532,312.999603 
	C56.725140,313.377899 62.011574,313.442474 67.182098,314.249542 
	C70.394241,314.750977 71.951828,317.374084 72.021233,320.781250 
	C72.094749,324.389771 70.528618,326.783234 67.133751,327.861298 
	C65.434677,328.400879 63.640400,328.924927 61.882683,328.947388 
	C53.247753,329.057709 44.582211,329.397400 35.989250,328.786774 
	C32.849857,328.563721 29.204418,326.545166 27.090084,324.182251 
	C25.836273,322.781036 26.112310,318.144501 27.504795,316.689423 
	C29.479292,314.626221 33.040802,313.508423 36.061680,313.151733 
	C40.812016,312.590912 45.676964,313.000763 50.990532,312.999603 
z"/>
<path fill="#000000" opacity="0.000000" stroke="none" 
	d="
M26.209896,403.393677 
	C25.482496,394.860260 29.033140,393.522095 35.701473,393.132538 
	C44.488205,392.619263 53.337044,392.762054 62.139965,393.109558 
	C66.354179,393.275940 70.897125,394.105652 71.936325,399.506653 
	C72.909225,404.563171 69.469994,408.622803 63.135368,408.876862 
	C53.668934,409.256500 44.149014,409.366302 34.710083,408.728760 
	C31.822353,408.533691 29.125753,405.509003 26.209896,403.393677 
z"/>
<path fill="#000000" opacity="0.000000" stroke="none" 
	d="
M236.015640,473.996399 
	C233.680878,475.089874 231.708160,476.091278 229.735443,477.092682 
	C229.458725,476.819702 229.182022,476.546722 228.905304,476.273773 
	C233.547455,466.968628 238.189606,457.663452 242.832520,448.356781 
	C247.746185,453.453552 252.412811,458.294067 257.222961,463.283478 
	C250.691772,466.611176 243.534729,470.257751 236.015640,473.996399 
z"/>
</svg>